<svg width="44" height="44" viewBox="0 0 44 44" fill="none" xmlns="http://www.w3.org/2000/svg">
<rect width="44" height="44" rx="22" fill="#F1F0FE"/>
<path d="M15.1584 21.491C15.0849 22.887 15.1694 24.373 13.9221 25.3084C13.3416 25.7438 13 26.427 13 27.1527C13 28.1508 13.7818 29 14.8 29H29.2C30.2182 29 31 28.1508 31 27.1527C31 26.427 30.6584 25.7438 30.0779 25.3084C28.8306 24.373 28.9151 22.887 28.8416 21.491C28.6501 17.8522 25.6438 15 22 15C18.3562 15 15.3499 17.8522 15.1584 21.491Z" stroke="#49454F" stroke-width="1.5" stroke-linecap="round" stroke-linejoin="round"/>
<path d="M20.5 13.125C20.5 13.9534 21.1716 15 22 15C22.8284 15 23.5 13.9534 23.5 13.125C23.5 12.2966 22.8284 12 22 12C21.1716 12 20.5 12.2966 20.5 13.125Z" stroke="#49454F" stroke-width="1.5" stroke-linecap="round" stroke-linejoin="round"/>
<path d="M25 29C25 30.6569 23.6569 32 22 32C20.3431 32 19 30.6569 19 29" stroke="#49454F" stroke-width="1.5" stroke-linecap="round" stroke-linejoin="round"/>
</svg>
