<svg width="30" height="30" viewBox="0 0 30 30" fill="none" xmlns="http://www.w3.org/2000/svg">
<path d="M26.6845 22.55L27.1714 21.6765V21.6765L26.6845 22.55ZM27.1132 24.7883L27.8883 25.4201V25.4201L27.1132 24.7883ZM18.7425 22.0825L19.3991 22.8368L18.7425 22.0825ZM24.7264 21.4585L24.2395 22.332L24.7264 21.4585ZM20.536 27.3802L20.3382 28.3605L20.536 27.3802ZM7.45 3.3155L6.57653 3.80237V3.80238L7.45 3.3155ZM5.21173 2.88684L4.57995 2.11169L4.57995 2.11169L5.21173 2.88684ZM7.91747 11.2575L8.67169 11.9141L7.91747 11.2575ZM8.54148 5.27364L9.41495 4.78676V4.78676L8.54148 5.27364ZM2.6198 9.46402L3.60005 9.26628L2.6198 9.46402ZM1.63954 9.66176C2.00526 11.4748 2.61474 13.2636 3.85456 15.4254L5.5895 14.4305C4.45926 12.4597 3.92436 10.8739 3.60005 9.26628L1.63954 9.66176ZM5.47625 15.5846L8.67169 11.9141L7.16324 10.6009L3.96781 14.2713L5.47625 15.5846ZM9.41495 4.78676L8.32347 2.82862L6.57653 3.80238L7.66801 5.76051L9.41495 4.78676ZM20.7337 26.3999C19.1261 26.0756 17.5403 25.5407 15.5695 24.4105L14.5746 26.1454C16.7364 27.3853 18.5252 27.9947 20.3382 28.3605L20.7337 26.3999ZM15.7287 26.0322L19.3991 22.8368L18.0859 21.3283L14.4154 24.5237L15.7287 26.0322ZM24.2395 22.332L26.1976 23.4235L27.1714 21.6765L25.2132 20.5851L24.2395 22.332ZM3.85456 15.4254C6.34142 19.7617 10.2332 23.6557 14.5746 26.1454L15.5695 24.4105C11.5364 22.0975 7.89985 18.459 5.5895 14.4305L3.85456 15.4254ZM19.3991 22.8368C20.0863 22.2385 20.5403 21.8452 20.9213 21.5821C21.2815 21.3333 21.4949 21.2605 21.6792 21.2412L21.4718 19.252C20.8334 19.3186 20.3004 19.5803 19.7848 19.9364C19.29 20.2781 18.7389 20.7598 18.0859 21.3283L19.3991 22.8368ZM25.2132 20.5851C24.457 20.1635 23.8183 19.8058 23.2637 19.5736C22.6857 19.3316 22.1102 19.1854 21.4718 19.252L21.6792 21.2412C21.8636 21.222 22.0874 21.2493 22.4912 21.4184C22.9183 21.5972 23.4437 21.8884 24.2395 22.332L25.2132 20.5851ZM8.67169 11.9141C9.24022 11.2611 9.72193 10.71 10.0636 10.2152C10.4197 9.69964 10.6814 9.1666 10.748 8.52821L8.75877 8.32077C8.73955 8.50513 8.66668 8.71851 8.41793 9.0787C8.1548 9.45971 7.76146 9.91375 7.16324 10.6009L8.67169 11.9141ZM7.66801 5.76051C8.11158 6.5563 8.40278 7.08172 8.58164 7.50883C8.75073 7.91259 8.778 8.13641 8.75877 8.32077L10.748 8.52821C10.8146 7.88982 10.6684 7.31425 10.4264 6.73629C10.1942 6.18167 9.83651 5.54304 9.41495 4.78676L7.66801 5.76051ZM26.338 24.1565C24.9448 25.8659 22.8265 26.8221 20.7337 26.3999L20.3382 28.3605C23.3046 28.9588 26.1282 27.5796 27.8883 25.4201L26.338 24.1565ZM4.57995 2.11169C2.42043 3.87179 1.04116 6.69543 1.63954 9.66176L3.60005 9.26628C3.17789 7.17351 4.1341 5.05523 5.8435 3.66199L4.57995 2.11169ZM26.1976 23.4235C26.4232 23.5492 26.4813 23.6815 26.4947 23.7462C26.5064 23.8031 26.5125 23.9424 26.338 24.1565L27.8883 25.4201C28.3802 24.8166 28.6056 24.0784 28.4533 23.3414C28.3026 22.6123 27.8132 22.0343 27.1714 21.6765L26.1976 23.4235ZM8.32347 2.82862C7.96573 2.18682 7.38768 1.69742 6.65857 1.54673C5.92156 1.3944 5.18341 1.61985 4.57995 2.11169L5.8435 3.66199C6.05763 3.48747 6.19688 3.49357 6.25375 3.50533C6.31851 3.51871 6.45081 3.57682 6.57653 3.80237L8.32347 2.82862Z" fill="#7367F0"/>
</svg>
