<svg width="20" height="20" viewBox="0 0 20 20" fill="none" xmlns="http://www.w3.org/2000/svg">
<g clip-path="url(#clip0_4406_5491)">
<path d="M14.1666 5C16.1213 5 16.6819 5 17.3552 5.51662C17.5285 5.64962 17.6837 5.80477 17.8167 5.9781C18.3333 6.65136 18.3333 7.62869 18.3333 9.58333V13.3333C18.3333 15.6904 18.3333 16.8689 17.6011 17.6011C16.8688 18.3333 15.6903 18.3333 13.3333 18.3333H6.66663C4.3096 18.3333 3.13109 18.3333 2.39886 17.6011C1.66663 16.8689 1.66663 15.6904 1.66663 13.3333V9.58333C1.66663 7.62869 1.66663 6.65136 2.18324 5.9781C2.31624 5.80477 2.47139 5.64962 2.64472 5.51662C3.31799 5 3.87865 5 5.83329 5" stroke="white" stroke-width="1.5" stroke-linecap="round"/>
<path d="M14.1666 5.83329L13.4284 3.98782C13.1099 3.19159 12.8327 2.28838 12.0138 1.88292C11.5769 1.66663 11.0513 1.66663 9.99992 1.66663C8.94859 1.66663 8.42292 1.66663 7.98605 1.88292C7.16709 2.28838 6.88993 3.1916 6.57144 3.98782L5.83325 5.83329" stroke="white" stroke-width="1.5" stroke-linecap="round" stroke-linejoin="round"/>
<path d="M12.9166 11.6667C12.9166 13.2775 11.6107 14.5833 9.99992 14.5833C8.38909 14.5833 7.08325 13.2775 7.08325 11.6667C7.08325 10.0558 8.38909 8.75 9.99992 8.75C11.6107 8.75 12.9166 10.0558 12.9166 11.6667Z" stroke="white" stroke-width="1.5"/>
<path d="M9.99984 5H10.0073" stroke="white" stroke-width="2" stroke-linecap="round" stroke-linejoin="round"/>
</g>
<defs>
<clipPath id="clip0_4406_5491">
<rect width="20" height="20" fill="white"/>
</clipPath>
</defs>
</svg>
