<svg width="30" height="30" viewBox="0 0 30 30" fill="none" xmlns="http://www.w3.org/2000/svg">
<circle cx="9.375" cy="9.375" r="1.875" stroke="#6E6E6E" stroke-width="1.5" stroke-linecap="round" stroke-linejoin="round"/>
<path d="M3.125 15C3.125 9.40207 3.125 6.60311 4.86405 4.86405C6.60311 3.125 9.40207 3.125 15 3.125C20.5979 3.125 23.3969 3.125 25.1359 4.86405C26.875 6.60311 26.875 9.40207 26.875 15C26.875 20.5979 26.875 23.3969 25.1359 25.1359C23.3969 26.875 20.5979 26.875 15 26.875C9.40207 26.875 6.60311 26.875 4.86405 25.1359C3.125 23.3969 3.125 20.5979 3.125 15Z" stroke="#6E6E6E" stroke-width="1.5"/>
<path d="M6.25 26.2499C11.7156 19.7187 17.8426 11.105 26.8718 16.9279" stroke="#6E6E6E" stroke-width="1.5"/>
</svg>
