<svg width="44" height="44" viewBox="0 0 44 44" fill="none" xmlns="http://www.w3.org/2000/svg">
<rect width="44" height="44" rx="22" fill="#F1F0FE"/>
<path d="M23.4366 31.367C23.0512 31.773 22.536 32 21.9998 32C21.4636 32 20.9484 31.773 20.5629 31.367C17.0331 27.626 12.4725 23 14.6096 17.3797C15.8569 14.0992 18.851 12 21.9998 12C25.1486 12 28.1427 14.0992 29.39 17.3797C30.9996 23 26.9752 27.6389 23.4366 31.367Z" stroke="#49454F" stroke-width="1.5"/>
<path d="M25.5 20C25.5 21.933 23.933 23.5 22 23.5C20.067 23.5 18.5 21.933 18.5 20C18.5 18.067 20.067 16.5 22 16.5C23.933 16.5 25.5 18.067 25.5 20Z" stroke="#49454F" stroke-width="1.5"/>
</svg>
