<svg width="24" height="24" viewBox="0 0 24 24" fill="none" xmlns="http://www.w3.org/2000/svg">
<path d="M13.4366 21.367C13.0512 21.773 12.536 22 11.9998 22C11.4636 22 10.9484 21.773 10.5629 21.367C7.03309 17.626 2.47251 13 4.60955 7.37966C5.85686 4.09916 8.85096 2 11.9998 2C15.1486 2 18.1427 4.09916 19.39 7.37966C20.9996 13 16.9752 17.6389 13.4366 21.367Z" stroke="#79747E" stroke-width="1.5" stroke-linecap="round" stroke-linejoin="round"/>
<path d="M15.5 10C15.5 11.933 13.933 13.5 12 13.5C10.067 13.5 8.5 11.933 8.5 10C8.5 8.067 10.067 6.5 12 6.5C13.933 6.5 15.5 8.067 15.5 10Z" stroke="#79747E" stroke-width="1.5" stroke-linecap="round" stroke-linejoin="round"/>
</svg>
