<svg width="24" height="24" viewBox="0 0 24 24" fill="none" xmlns="http://www.w3.org/2000/svg">
<path d="M13 14.5C13 15.0523 12.5523 15.5 12 15.5C11.4477 15.5 11 15.0523 11 14.5L13 14.5ZM10.2171 7.69699C9.83214 8.09302 9.19904 8.10202 8.80301 7.71708C8.40698 7.33214 8.39798 6.69904 8.78292 6.30301L10.2171 7.69699ZM15.2171 6.30301C15.602 6.69904 15.593 7.33214 15.197 7.71708C14.801 8.10202 14.1679 8.09302 13.7829 7.69699L15.2171 6.30301ZM13 4.5L13 14.5L11 14.5L11 4.5H13ZM12 5.5C12.1401 5.5 12.2103 5.45402 12.1835 5.46837C12.1646 5.47848 12.1144 5.51023 12.0315 5.58081C11.8649 5.72267 11.6618 5.93883 11.4347 6.20684C11.2113 6.47048 10.9925 6.75074 10.7859 7.01373C10.5972 7.25401 10.3855 7.52368 10.2171 7.69699L8.78292 6.30301C8.86023 6.22347 8.99642 6.05421 9.2131 5.77834C9.41196 5.52517 9.65617 5.21203 9.9088 4.91389C10.1577 4.62011 10.4437 4.30608 10.7347 4.05821C10.8806 3.93392 11.0513 3.80592 11.2399 3.70499C11.4205 3.60831 11.6848 3.5 12 3.5V5.5ZM13.7829 7.69699C13.6145 7.52368 13.4028 7.25401 13.2141 7.01373C13.0075 6.75074 12.7887 6.47048 12.5653 6.20684C12.3382 5.93883 12.1351 5.72267 11.9685 5.58081C11.8856 5.51023 11.8354 5.47848 11.8165 5.46837C11.7897 5.45402 11.8599 5.5 12 5.5V3.5C12.3152 3.5 12.5795 3.60831 12.7601 3.70499C12.9487 3.80592 13.1194 3.93392 13.2653 4.05821C13.5563 4.30608 13.8423 4.62011 14.0912 4.91389C14.3438 5.21203 14.588 5.52517 14.7869 5.77834C15.0036 6.05421 15.1398 6.22347 15.2171 6.30301L13.7829 7.69699Z" fill="#1D1B20"/>
<path d="M21 16.5C21 15.9477 20.5523 15.5 20 15.5C19.4477 15.5 19 15.9477 19 16.5H21ZM5 16.5C5 15.9477 4.55228 15.5 4 15.5C3.44772 15.5 3 15.9477 3 16.5H5ZM7 20.5H17V18.5H7V20.5ZM3 16.5C3 17.1421 3.03219 17.7259 3.14301 18.2304C3.25632 18.7462 3.46503 19.2407 3.86214 19.6379C4.25926 20.035 4.7538 20.2437 5.26959 20.357C5.77406 20.4678 6.35786 20.5 7 20.5V18.5C6.40114 18.5 5.98944 18.4674 5.69872 18.4036C5.41933 18.3422 5.31899 18.2663 5.27636 18.2236C5.23372 18.181 5.15781 18.0807 5.09643 17.8013C5.03256 17.5106 5 17.0989 5 16.5H3ZM17 20.5C17.6421 20.5 18.2259 20.4678 18.7304 20.357C19.2462 20.2437 19.7407 20.035 20.1379 19.6379C20.535 19.2407 20.7437 18.7462 20.857 18.2304C20.9678 17.7259 21 17.1421 21 16.5H19C19 17.0989 18.9674 17.5106 18.9036 17.8013C18.8422 18.0807 18.7663 18.181 18.7236 18.2236C18.681 18.2663 18.5807 18.3422 18.3013 18.4036C18.0106 18.4674 17.5989 18.5 17 18.5V20.5Z" fill="#1D1B20"/>
</svg>
